{"title":"Panjabi MC and Shweta Pandit - I Got That Poison [HISSS] [PbTone","uid":6064096,"size":32555855,"categoryP":"video","categoryS":"music_videos","magnet":"?xt=urn:btih:14d01fda3ce698985040851e313b361174726ba5&amp;dn=Panjabi+MC+and+Shweta+Pandit+-+I+Got+That+Poison+%5BHISSS%5D+%5BPbTone&amp;tr=udp%3A%2F%2Ftracker.openbittorrent.com%3A80&amp;tr=udp%3A%2F%2Fopen.demonii.com%3A1337&amp;tr=udp%3A%2F%2Ftracker.coppersurfer.tk%3A6969&amp;tr=udp%3A%2F%2Fexodus.desync.com%3A6969","seeders":0,"leechers":0,"uploader":"PBTONE","files":-1,"time":1293263192,"description":"      :::::::::  :::::::::   ::::::::::: ::::::::  ::::    ::: :::::::::: \n     :+:    :+: :+:    :+:      :+:    :+:    :+: :+:+:   :+: :+:         \n    +:+    +:+ +:+    +:+      +:+    +:+    +:+ :+:+:+  +:+ +:+          \n   +#++:++#+  +#++:++#+       +#+    +#+    +:+ +#+ +:+ +#+ +#++:++#      \n  +#+        +#+    +#+      +#+    +#+    +#+ +#+  +#+#+# +#+            \n #+#        #+#    #+#      #+#    #+#    #+# #+#   #+#+# #+#             \n###        #########       ###     ########  ###    #### ########## \n\n\n\nGeneral\nFormat                           : AVI\nFormat/Info                      : Audio Video Interleave\nFile size                        : 30.9 MiB\nDuration                         : 3mn 45s\nOverall bit rate                 : 1 148 Kbps\nWriting application              : MEncoder Sherpya-SVN-r32492-4.2.5\nWriting library                  : MPlayer\n\nVideo\nID                               : 0\nFormat                           : AVC\nFormat/Info                      : Advanced Video Codec\nFormat profile                   : &lt;a class=&quot;__cf_email__&quot; href=&quot;/cdn-cgi/l/email-protection&quot; data-cfemail=&quot;aeeccfddcbc2c7c0cbeee29f809d&quot;&gt;[email&amp;#160;protected]&lt;/a&gt;&lt;script cf-hash='f9e31' type=&quot;text/javascript&quot;&gt;\n/* &lt;![CDATA[ */!function(){try{var t=&quot;currentScript&quot;in document?document.currentScript:function(){for(var t=document.getElementsByTagName(&quot;script&quot;),e=t.length;e--;)if(t[e].getAttribute(&quot;cf-hash&quot;))return t[e]}();if(t&amp;&amp;t.previousSibling){var e,r,n,i,c=t.previousSibling,a=c.getAttribute(&quot;data-cfemail&quot;);if(a){for(e=&quot;&quot;,r=parseInt(a.substr(0,2),16),n=2;a.length-n;n+=2)i=parseInt(a.substr(n,2),16)^r,e+=String.fromCharCode(i);e=document.createTextNode(e),c.parentNode.replaceChild(e,c)}}}catch(u){}}();/* ]]&gt; */&lt;/script&gt;\nFormat settings, CABAC           : No\nFormat settings, ReFrames        : 2 frames\nCodec ID                         : h264\nDuration                         : 3mn 45s\nBit rate                         : 1 024 Kbps\nWidth                            : 640 pixels\nHeight                           : 480 pixels\nDisplay aspect ratio             : 4:3\nFrame rate                       : 25.000 fps\nColor space                      : YUV\nChroma subsampling               : 4:2:0\nBit depth                        : 8 bits\nScan type                        : Progressive\nBits/(Pixel*Frame)               : 0.133\nStream size                      : 27.3 MiB (88%)\nWriting library                  : x264 core 107 r1745 4785e8e\n\n\nAudio\nID                               : 1\nFormat                           : MPEG Audio\nFormat version                   : Version 1\nFormat profile                   : Layer 3\nMode                             : Joint stereo\nCodec ID                         : 55\nCodec ID/Hint                    : MP3\nDuration                         : 3mn 44s\nBit rate mode                    : Variable\nBit rate                         : 123 Kbps\nChannel(s)                       : 2 channels\nSampling rate                    : 44.1 KHz\nCompression mode                 : Lossy\nStream size                      : 3.28 MiB (11%)\nAlignment                        : Aligned on interleaves\nInterleave, duration             : 26 ms (0.66 video frame)\nInterleave, preload duration     : 394 ms\nWriting library                  : LAME3.98.4\n\n\n\nScreen Shoots\n\n\n &lt;a href=&quot;\nhttp://imagehacks.in/share-1011_4D159432.html&quot; rel=&quot;nofollow&quot; target=&quot;_NEW&quot;&gt;\nhttp://imagehacks.in/share-1011_4D159432.html&lt;/a&gt;\n &lt;a href=&quot;\nhttp://www.pbtone.net&quot; rel=&quot;nofollow&quot; target=&quot;_NEW&quot;&gt;\nhttp://www.pbtone.net&lt;/a&gt;\n","torrent":{"xt":"urn:btih:14d01fda3ce698985040851e313b361174726ba5","amp;dn":"Panjabi+MC+and+Shweta+Pandit+-+I+Got+That+Poison+%5BHISSS%5D+%5BPbTone","amp;tr":["udp%3A%2F%2Ftracker.openbittorrent.com%3A80","udp%3A%2F%2Fopen.demonii.com%3A1337","udp%3A%2F%2Ftracker.coppersurfer.tk%3A6969","udp%3A%2F%2Fexodus.desync.com%3A6969"],"infoHash":"14d01fda3ce698985040851e313b361174726ba5","infoHashBuffer":{"type":"Buffer","data":[20,208,31,218,60,230,152,152,80,64,133,30,49,59,54,17,116,114,107,165]},"announce":[],"urlList":[]}}